<?xml version="1.0" encoding="UTF-8"?>
<svg xmlns="http://www.w3.org/2000/svg" xmlns:xlink="http://www.w3.org/1999/xlink" width="166.531" height="84.024" viewBox="0 0 166.531 84.024">
<defs>
<g>
<g id="glyph-0-0">
<path d="M 1.28125 -1.28125 L 2.203125 -1.28125 C 2.78125 -1.28125 3.390625 -1.609375 3.390625 -2.078125 C 3.390625 -2.53125 2.84375 -2.890625 2.15625 -2.890625 L 0.359375 -2.890625 L 0.359375 -2.703125 L 0.484375 -2.703125 C 0.828125 -2.703125 0.828125 -2.65625 0.828125 -2.53125 L 0.828125 -0.359375 C 0.828125 -0.234375 0.828125 -0.1875 0.484375 -0.1875 L 0.359375 -0.1875 L 0.359375 0 C 0.546875 -0.015625 0.8125 -0.015625 1.046875 -0.015625 C 1.296875 -0.015625 1.5625 -0.015625 1.75 0 L 1.75 -0.1875 L 1.625 -0.1875 C 1.28125 -0.1875 1.28125 -0.234375 1.28125 -0.359375 Z M 2.0625 -2.703125 C 2.75 -2.703125 2.90625 -2.40625 2.90625 -2.078125 C 2.90625 -1.734375 2.734375 -1.453125 2.0625 -1.453125 L 1.265625 -1.453125 L 1.265625 -2.546875 C 1.265625 -2.671875 1.265625 -2.703125 1.46875 -2.703125 Z M 2.0625 -2.703125 "/>
</g>
<g id="glyph-0-1">
<path d="M 3.390625 -2.4375 C 3.46875 -2.625 3.625 -2.703125 3.921875 -2.703125 L 3.921875 -2.890625 C 3.765625 -2.875 3.59375 -2.875 3.453125 -2.875 C 3.390625 -2.875 3.09375 -2.875 2.90625 -2.890625 L 2.90625 -2.703125 C 3.109375 -2.703125 3.203125 -2.609375 3.203125 -2.53125 C 3.203125 -2.484375 3.203125 -2.46875 3.1875 -2.4375 L 2.203125 -0.40625 L 1.1875 -2.546875 C 1.171875 -2.59375 1.171875 -2.59375 1.171875 -2.609375 C 1.171875 -2.703125 1.40625 -2.703125 1.515625 -2.703125 L 1.515625 -2.890625 C 1.359375 -2.890625 1.03125 -2.875 0.84375 -2.875 C 0.71875 -2.875 0.453125 -2.875 0.234375 -2.890625 L 0.234375 -2.703125 L 0.328125 -2.703125 C 0.59375 -2.703125 0.640625 -2.671875 0.703125 -2.5625 L 1.921875 -0.015625 C 1.953125 0.0625 1.984375 0.09375 2.078125 0.09375 C 2.171875 0.09375 2.1875 0.0625 2.234375 -0.015625 Z M 3.390625 -2.4375 "/>
</g>
<g id="glyph-0-2">
<path d="M 2.296875 -0.9375 L 3.765625 -0.9375 C 3.828125 -0.9375 3.9375 -0.9375 3.9375 -1.0625 C 3.9375 -1.171875 3.828125 -1.171875 3.765625 -1.171875 L 2.296875 -1.171875 L 2.296875 -2.65625 C 2.296875 -2.703125 2.296875 -2.828125 2.171875 -2.828125 C 2.0625 -2.828125 2.0625 -2.703125 2.0625 -2.65625 L 2.0625 -1.171875 L 0.578125 -1.171875 C 0.53125 -1.171875 0.40625 -1.171875 0.40625 -1.0625 C 0.40625 -0.9375 0.53125 -0.9375 0.578125 -0.9375 L 2.0625 -0.9375 L 2.0625 0.53125 C 2.0625 0.59375 2.0625 0.703125 2.171875 0.703125 C 2.296875 0.703125 2.296875 0.59375 2.296875 0.53125 Z M 2.296875 -0.9375 "/>
</g>
<g id="glyph-0-3">
<path d="M 2.5 -0.8125 L 2.3125 -0.8125 C 2.296875 -0.734375 2.265625 -0.46875 2.1875 -0.4375 C 2.15625 -0.40625 1.796875 -0.40625 1.734375 -0.40625 L 0.90625 -0.40625 C 1.1875 -0.609375 1.5 -0.84375 1.75 -1.015625 C 2.140625 -1.28125 2.5 -1.53125 2.5 -1.984375 C 2.5 -2.515625 1.984375 -2.8125 1.375 -2.8125 C 0.796875 -2.8125 0.390625 -2.484375 0.390625 -2.078125 C 0.390625 -1.859375 0.578125 -1.8125 0.625 -1.8125 C 0.75 -1.8125 0.875 -1.890625 0.875 -2.0625 C 0.875 -2.21875 0.765625 -2.296875 0.640625 -2.3125 C 0.765625 -2.5 1 -2.640625 1.28125 -2.640625 C 1.703125 -2.640625 2.046875 -2.390625 2.046875 -1.96875 C 2.046875 -1.625 1.796875 -1.34375 1.46875 -1.078125 L 0.4375 -0.1875 C 0.390625 -0.15625 0.390625 -0.15625 0.390625 -0.125 L 0.390625 0 L 2.359375 0 Z M 2.5 -0.8125 "/>
</g>
<g id="glyph-1-0">
<path d="M 1.84375 -2.15625 L 2.546875 -2.15625 C 2.453125 -1.796875 2.328125 -1.25 2.328125 -0.78125 C 2.328125 -0.546875 2.359375 -0.390625 2.390625 -0.265625 C 2.484375 0.03125 2.5625 0.0625 2.65625 0.0625 C 2.796875 0.0625 2.9375 -0.0625 2.9375 -0.203125 C 2.9375 -0.25 2.921875 -0.28125 2.890625 -0.34375 C 2.78125 -0.5625 2.671875 -0.890625 2.671875 -1.375 C 2.671875 -1.5 2.671875 -1.734375 2.75 -2.15625 L 3.5 -2.15625 C 3.59375 -2.15625 3.640625 -2.15625 3.71875 -2.203125 C 3.796875 -2.25 3.8125 -2.34375 3.8125 -2.375 C 3.8125 -2.546875 3.65625 -2.546875 3.5625 -2.546875 L 1.328125 -2.546875 C 1.078125 -2.546875 0.921875 -2.5 0.65625 -2.25 C 0.5 -2.109375 0.265625 -1.796875 0.265625 -1.734375 C 0.265625 -1.671875 0.34375 -1.671875 0.359375 -1.671875 C 0.4375 -1.671875 0.4375 -1.6875 0.46875 -1.734375 C 0.78125 -2.15625 1.140625 -2.15625 1.265625 -2.15625 L 1.640625 -2.15625 C 1.453125 -1.5 1.125 -0.796875 0.953125 -0.4375 C 0.921875 -0.359375 0.859375 -0.25 0.84375 -0.21875 C 0.828125 -0.203125 0.828125 -0.171875 0.828125 -0.125 C 0.828125 -0.03125 0.890625 0.0625 1.03125 0.0625 C 1.265625 0.0625 1.328125 -0.203125 1.46875 -0.734375 Z M 1.84375 -2.15625 "/>
</g>
<g id="glyph-1-1">
<path d="M 0.4375 0.71875 C 0.40625 0.890625 0.390625 0.9375 0.15625 0.9375 C 0.078125 0.9375 0 0.9375 0 1.0625 C 0 1.125 0.046875 1.15625 0.078125 1.15625 C 0.234375 1.15625 0.421875 1.125 0.59375 1.125 C 0.78125 1.125 1.015625 1.15625 1.203125 1.15625 C 1.265625 1.15625 1.328125 1.125 1.328125 1.015625 C 1.328125 0.9375 1.25 0.9375 1.171875 0.9375 C 1.046875 0.9375 0.875 0.9375 0.875 0.859375 C 0.875 0.828125 0.921875 0.6875 0.953125 0.59375 C 1.015625 0.28125 1.09375 -0.046875 1.171875 -0.296875 C 1.234375 -0.171875 1.421875 0.0625 1.78125 0.0625 C 2.5 0.0625 3.296875 -0.734375 3.296875 -1.625 C 3.296875 -2.3125 2.8125 -2.609375 2.40625 -2.609375 C 2.046875 -2.609375 1.734375 -2.359375 1.5625 -2.203125 C 1.46875 -2.53125 1.140625 -2.609375 0.953125 -2.609375 C 0.734375 -2.609375 0.59375 -2.453125 0.484375 -2.296875 C 0.375 -2.09375 0.28125 -1.734375 0.28125 -1.703125 C 0.28125 -1.625 0.359375 -1.625 0.375 -1.625 C 0.46875 -1.625 0.46875 -1.640625 0.515625 -1.8125 C 0.59375 -2.15625 0.703125 -2.453125 0.9375 -2.453125 C 1.09375 -2.453125 1.140625 -2.3125 1.140625 -2.15625 C 1.140625 -2.09375 1.125 -2.015625 1.125 -1.984375 Z M 1.5625 -1.90625 C 1.90625 -2.359375 2.203125 -2.453125 2.390625 -2.453125 C 2.625 -2.453125 2.828125 -2.28125 2.828125 -1.875 C 2.828125 -1.625 2.6875 -1.03125 2.515625 -0.6875 C 2.375 -0.390625 2.078125 -0.109375 1.78125 -0.109375 C 1.359375 -0.109375 1.25 -0.5625 1.25 -0.625 C 1.25 -0.640625 1.265625 -0.6875 1.265625 -0.703125 Z M 1.5625 -1.90625 "/>
</g>
<g id="glyph-1-2">
<path d="M 2.640625 -0.828125 C 2.625 -1.171875 2.421875 -2.609375 1.453125 -2.609375 C 1.09375 -2.609375 0.796875 -2.421875 0.640625 -2.265625 C 0.265625 -1.9375 0.203125 -1.5625 0.203125 -1.546875 C 0.203125 -1.46875 0.28125 -1.46875 0.296875 -1.46875 C 0.375 -1.46875 0.375 -1.484375 0.40625 -1.578125 C 0.53125 -1.921875 0.96875 -2.140625 1.375 -2.140625 C 2.328125 -2.140625 2.453125 -1.1875 2.453125 -0.578125 C 2.453125 -0.28125 2.421875 -0.21875 2.40625 -0.15625 C 2.265625 0.296875 2.09375 0.953125 2.09375 1.125 C 2.09375 1.1875 2.109375 1.265625 2.1875 1.265625 C 2.234375 1.265625 2.296875 1.265625 2.390625 0.953125 C 2.46875 0.734375 2.578125 0.296875 2.625 -0.140625 C 2.640625 -0.34375 2.984375 -1.140625 3.109375 -1.421875 C 3.1875 -1.609375 3.3125 -1.890625 3.59375 -2.40625 C 3.609375 -2.4375 3.625 -2.453125 3.625 -2.484375 C 3.625 -2.546875 3.546875 -2.546875 3.53125 -2.546875 C 3.5 -2.546875 3.453125 -2.546875 3.4375 -2.515625 C 3.359375 -2.390625 2.90625 -1.546875 2.640625 -0.828125 Z M 2.640625 -0.828125 "/>
</g>
<g id="glyph-1-3">
<path d="M 2.453125 -3.625 C 2.484375 -3.796875 2.5 -3.8125 2.625 -3.828125 L 3.015625 -3.828125 C 3.5625 -3.828125 4.234375 -3.828125 4.234375 -3.21875 C 4.234375 -2.984375 4.125 -2.609375 3.84375 -2.390625 C 3.609375 -2.203125 3.234375 -2.109375 2.828125 -2.109375 L 2.0625 -2.109375 Z M 3.515625 -2.015625 C 4.21875 -2.171875 4.84375 -2.609375 4.84375 -3.125 C 4.84375 -3.640625 4.25 -4.046875 3.390625 -4.046875 L 1.5625 -4.046875 C 1.453125 -4.046875 1.375 -4.046875 1.375 -3.921875 C 1.375 -3.828125 1.453125 -3.828125 1.5625 -3.828125 C 1.578125 -3.828125 1.6875 -3.828125 1.796875 -3.8125 C 1.921875 -3.8125 1.9375 -3.796875 1.9375 -3.734375 C 1.9375 -3.71875 1.9375 -3.6875 1.90625 -3.609375 L 1.125 -0.46875 C 1.078125 -0.265625 1.0625 -0.21875 0.59375 -0.21875 C 0.5 -0.21875 0.421875 -0.21875 0.421875 -0.09375 C 0.421875 -0.03125 0.46875 0 0.515625 0 C 0.625 0 0.765625 -0.015625 0.875 -0.015625 C 1 -0.015625 1.171875 -0.03125 1.265625 -0.03125 C 1.390625 -0.03125 1.53125 -0.015625 1.65625 -0.015625 C 1.78125 -0.015625 1.921875 0 2.046875 0 C 2.078125 0 2.171875 0 2.171875 -0.125 C 2.171875 -0.21875 2.109375 -0.21875 1.984375 -0.21875 C 1.890625 -0.21875 1.859375 -0.21875 1.75 -0.21875 C 1.625 -0.25 1.625 -0.25 1.625 -0.3125 C 1.625 -0.3125 1.625 -0.359375 1.640625 -0.4375 L 2.015625 -1.9375 L 2.828125 -1.9375 C 3.328125 -1.9375 3.546875 -1.6875 3.546875 -1.40625 C 3.546875 -1.328125 3.5 -1.125 3.46875 -1 C 3.40625 -0.71875 3.375 -0.640625 3.375 -0.53125 C 3.375 -0.0625 3.8125 0.125 4.25 0.125 C 4.796875 0.125 5.03125 -0.46875 5.03125 -0.5625 C 5.03125 -0.59375 5.015625 -0.65625 4.921875 -0.65625 C 4.84375 -0.65625 4.84375 -0.609375 4.828125 -0.546875 C 4.734375 -0.296875 4.515625 -0.046875 4.265625 -0.046875 C 4.109375 -0.046875 4 -0.109375 4 -0.4375 C 4 -0.578125 4.03125 -0.890625 4.0625 -1.046875 C 4.09375 -1.203125 4.09375 -1.265625 4.09375 -1.328125 C 4.09375 -1.390625 4.09375 -1.59375 3.921875 -1.765625 C 3.8125 -1.890625 3.640625 -1.96875 3.515625 -2.015625 Z M 3.515625 -2.015625 "/>
</g>
<g id="glyph-1-4">
<path d="M 3.3125 -1.609375 C 3.359375 -1.78125 3.359375 -1.796875 3.359375 -1.9375 C 3.359375 -2.03125 3.359375 -2.28125 3.140625 -2.453125 C 3.03125 -2.53125 2.859375 -2.609375 2.59375 -2.609375 C 2.34375 -2.609375 1.96875 -2.546875 1.59375 -2.078125 C 1.546875 -2.515625 1.140625 -2.609375 0.953125 -2.609375 C 0.734375 -2.609375 0.59375 -2.453125 0.484375 -2.296875 C 0.375 -2.09375 0.28125 -1.734375 0.28125 -1.703125 C 0.28125 -1.625 0.359375 -1.625 0.375 -1.625 C 0.46875 -1.625 0.46875 -1.640625 0.515625 -1.8125 C 0.59375 -2.15625 0.703125 -2.453125 0.9375 -2.453125 C 1.09375 -2.453125 1.140625 -2.3125 1.140625 -2.15625 C 1.140625 -2.046875 1.078125 -1.828125 1.046875 -1.65625 C 1 -1.5 0.9375 -1.265625 0.90625 -1.125 L 0.71875 -0.375 C 0.703125 -0.296875 0.65625 -0.140625 0.65625 -0.125 C 0.65625 0 0.765625 0.0625 0.859375 0.0625 C 0.96875 0.0625 1.0625 -0.015625 1.09375 -0.078125 C 1.125 -0.125 1.171875 -0.3125 1.203125 -0.4375 C 1.234375 -0.546875 1.296875 -0.828125 1.328125 -0.96875 C 1.375 -1.09375 1.40625 -1.234375 1.4375 -1.375 C 1.5 -1.625 1.5 -1.640625 1.609375 -1.8125 C 1.8125 -2.109375 2.109375 -2.453125 2.5625 -2.453125 C 2.890625 -2.453125 2.90625 -2.171875 2.90625 -2.03125 C 2.90625 -1.875 2.90625 -1.8125 2.875 -1.703125 L 2.203125 0.953125 C 2.171875 1.046875 2.171875 1.078125 2.171875 1.078125 C 2.171875 1.203125 2.28125 1.265625 2.375 1.265625 C 2.59375 1.265625 2.640625 1.0625 2.671875 0.984375 Z M 3.3125 -1.609375 "/>
</g>
<g id="glyph-1-5">
<path d="M 2.90625 -4.03125 C 2.90625 -4.109375 2.84375 -4.109375 2.8125 -4.109375 C 2.71875 -4.109375 2.71875 -4.078125 2.6875 -3.984375 L 2.359375 -2.625 C 1.3125 -2.578125 0.421875 -1.828125 0.421875 -1.03125 C 0.421875 -0.359375 1.03125 0.046875 1.6875 0.0625 C 1.640625 0.25 1.59375 0.4375 1.546875 0.625 C 1.46875 0.90625 1.421875 1.125 1.421875 1.140625 C 1.421875 1.203125 1.5 1.203125 1.515625 1.203125 C 1.609375 1.203125 1.609375 1.1875 1.640625 1.0625 L 1.890625 0.078125 C 2.90625 0.03125 3.828125 -0.71875 3.828125 -1.515625 C 3.828125 -2.140625 3.28125 -2.59375 2.5625 -2.625 Z M 1.71875 -0.09375 C 1.265625 -0.125 0.84375 -0.375 0.84375 -0.9375 C 0.84375 -1.515625 1.296875 -2.359375 2.3125 -2.453125 Z M 2.515625 -2.453125 C 2.96875 -2.4375 3.40625 -2.1875 3.40625 -1.625 C 3.40625 -0.984375 2.890625 -0.1875 1.9375 -0.09375 Z M 2.515625 -2.453125 "/>
</g>
<g id="glyph-2-0">
<path d="M 3.71875 -0.9375 C 3.796875 -0.9375 3.90625 -0.9375 3.90625 -1.0625 C 3.90625 -1.171875 3.796875 -1.171875 3.71875 -1.171875 L 0.859375 -1.171875 C 0.796875 -1.171875 0.671875 -1.171875 0.671875 -1.0625 C 0.671875 -0.9375 0.796875 -0.9375 0.859375 -0.9375 Z M 3.71875 -0.9375 "/>
</g>
<g id="glyph-3-0">
<path d="M 2.90625 -4.671875 C 2.953125 -4.859375 2.96875 -4.9375 3.109375 -4.96875 C 3.171875 -4.96875 3.4375 -4.96875 3.59375 -4.96875 C 4.1875 -4.96875 5.03125 -4.96875 5.03125 -4.203125 C 5.03125 -3.921875 4.921875 -3.34375 4.484375 -3.015625 C 4.296875 -2.890625 3.921875 -2.703125 3.296875 -2.703125 L 2.40625 -2.703125 Z M 4.09375 -2.578125 C 5.125 -2.859375 5.765625 -3.4375 5.765625 -4.0625 C 5.765625 -4.71875 5.046875 -5.203125 4.03125 -5.203125 L 1.8125 -5.203125 C 1.671875 -5.203125 1.59375 -5.203125 1.59375 -5.078125 C 1.59375 -4.96875 1.65625 -4.96875 1.8125 -4.96875 C 1.84375 -4.96875 1.984375 -4.96875 2.109375 -4.953125 C 2.234375 -4.9375 2.28125 -4.921875 2.28125 -4.84375 C 2.28125 -4.796875 2.28125 -4.765625 2.25 -4.6875 L 1.234375 -0.578125 C 1.15625 -0.3125 1.140625 -0.234375 0.578125 -0.234375 C 0.421875 -0.234375 0.34375 -0.234375 0.34375 -0.09375 C 0.34375 -0.015625 0.40625 0 0.453125 0 C 0.578125 0 0.8125 0 0.9375 -0.015625 C 1.09375 -0.015625 1.109375 -0.015625 1.40625 -0.015625 C 1.65625 -0.015625 1.671875 -0.015625 1.90625 -0.015625 C 2.046875 0 2.234375 0 2.390625 0 C 2.4375 0 2.546875 0 2.546875 -0.140625 C 2.546875 -0.234375 2.46875 -0.234375 2.296875 -0.234375 C 2.265625 -0.234375 2.140625 -0.234375 2.015625 -0.25 C 1.84375 -0.28125 1.84375 -0.3125 1.84375 -0.375 C 1.84375 -0.390625 1.84375 -0.40625 1.875 -0.546875 L 2.359375 -2.515625 L 3.296875 -2.515625 C 3.984375 -2.515625 4.15625 -2.109375 4.15625 -1.828125 C 4.15625 -1.765625 4.15625 -1.71875 4.125 -1.546875 C 3.9375 -0.84375 3.9375 -0.78125 3.9375 -0.65625 C 3.9375 0.015625 4.578125 0.171875 4.96875 0.171875 C 5.640625 0.171875 5.90625 -0.609375 5.90625 -0.71875 C 5.90625 -0.78125 5.859375 -0.8125 5.8125 -0.8125 C 5.71875 -0.8125 5.71875 -0.78125 5.6875 -0.6875 C 5.5625 -0.296875 5.28125 -0.015625 5 -0.015625 C 4.703125 -0.015625 4.6875 -0.25 4.6875 -0.46875 C 4.6875 -0.65625 4.75 -1.109375 4.75 -1.15625 C 4.765625 -1.28125 4.796875 -1.59375 4.796875 -1.703125 C 4.796875 -2.140625 4.53125 -2.4375 4.09375 -2.578125 Z M 4.09375 -2.578125 "/>
</g>
<g id="glyph-4-0">
<path d="M 2.96875 -4.09375 C 2.90625 -4.1875 2.890625 -4.21875 2.765625 -4.21875 C 2.703125 -4.21875 2.640625 -4.203125 2.59375 -4.109375 L 0.40625 -0.140625 C 0.359375 -0.078125 0.359375 -0.0625 0.359375 -0.0625 C 0.359375 0 0.40625 0 0.5 0 L 5.046875 0 C 5.140625 0 5.1875 0 5.1875 -0.0625 C 5.1875 -0.0625 5.1875 -0.078125 5.140625 -0.140625 Z M 2.578125 -3.640625 L 4.3125 -0.484375 L 0.828125 -0.484375 Z M 2.578125 -3.640625 "/>
</g>
<g id="glyph-4-1">
<path d="M 4.546875 -1.984375 C 4.640625 -1.984375 4.765625 -1.984375 4.765625 -2.140625 C 4.765625 -2.28125 4.625 -2.28125 4.546875 -2.28125 L 0.640625 -2.28125 C 0.5625 -2.28125 0.421875 -2.28125 0.421875 -2.140625 C 0.421875 -1.984375 0.546875 -1.984375 0.640625 -1.984375 Z M 4.546875 -0.6875 C 4.625 -0.6875 4.765625 -0.6875 4.765625 -0.828125 C 4.765625 -0.984375 4.640625 -0.984375 4.546875 -0.984375 L 0.640625 -0.984375 C 0.546875 -0.984375 0.421875 -0.984375 0.421875 -0.828125 C 0.421875 -0.6875 0.5625 -0.6875 0.640625 -0.6875 Z M 4.546875 -0.6875 "/>
</g>
<g id="glyph-4-2">
<path d="M 2.734375 -1.34375 L 4.546875 -1.34375 C 4.625 -1.34375 4.765625 -1.34375 4.765625 -1.484375 C 4.765625 -1.625 4.640625 -1.625 4.546875 -1.625 L 2.734375 -1.625 L 2.734375 -3.453125 C 2.734375 -3.53125 2.734375 -3.671875 2.59375 -3.671875 C 2.453125 -3.671875 2.453125 -3.53125 2.453125 -3.453125 L 2.453125 -1.625 L 0.640625 -1.625 C 0.5625 -1.625 0.421875 -1.625 0.421875 -1.484375 C 0.421875 -1.34375 0.546875 -1.34375 0.640625 -1.34375 L 2.453125 -1.34375 L 2.453125 0.484375 C 2.453125 0.5625 2.453125 0.703125 2.59375 0.703125 C 2.734375 0.703125 2.734375 0.5625 2.734375 0.484375 Z M 2.734375 -1.34375 "/>
</g>
<g id="glyph-5-0">
<path d="M 2.859375 6.8125 C 3.0625 6.8125 3.09375 6.8125 3.15625 6.703125 L 6.75 -0.03125 C 6.796875 -0.109375 6.796875 -0.125 6.796875 -0.140625 C 6.796875 -0.234375 6.71875 -0.296875 6.65625 -0.296875 C 6.5625 -0.296875 6.53125 -0.234375 6.5 -0.171875 L 3.109375 6.1875 L 1.71875 3.265625 L 0.828125 3.890625 L 0.9375 4 L 1.390625 3.6875 Z M 2.859375 6.8125 "/>
</g>
</g>
<clipPath id="clip-0">
<path clip-rule="nonzero" d="M 2 0 L 120 0 L 120 84.023438 L 2 84.023438 Z M 2 0 "/>
</clipPath>
<clipPath id="clip-1">
<path clip-rule="nonzero" d="M 77 0 L 120 0 L 120 84.023438 L 77 84.023438 Z M 77 0 "/>
</clipPath>
<clipPath id="clip-2">
<path clip-rule="nonzero" d="M 0 33 L 112 33 L 112 84.023438 L 0 84.023438 Z M 0 33 "/>
</clipPath>
</defs>
<path fill-rule="nonzero" fill="rgb(0%, 0%, 0%)" fill-opacity="1" d="M 15.222656 47.484375 C 15.222656 46.6875 14.574219 46.039062 13.777344 46.039062 C 12.980469 46.039062 12.332031 46.6875 12.332031 47.484375 C 12.332031 48.28125 12.980469 48.929688 13.777344 48.929688 C 14.574219 48.929688 15.222656 48.28125 15.222656 47.484375 Z M 15.222656 47.484375 "/>
<g fill="rgb(0%, 0%, 0%)" fill-opacity="1">
<use xlink:href="#glyph-0-0" x="2.822" y="48.923"/>
<use xlink:href="#glyph-0-1" x="6.632694" y="48.923"/>
</g>
<path fill-rule="nonzero" fill="rgb(95.391846%, 95.881653%, 97.05658%)" fill-opacity="0.6" d="M 13.777344 47.484375 L 98.109375 11.339844 C 103.433594 11.339844 107.746094 27.523438 107.746094 47.484375 C 107.746094 67.445312 103.433594 83.625 98.109375 83.625 Z M 13.777344 47.484375 "/>
<g clip-path="url(#clip-0)">
<path fill="none" stroke-width="0.79701" stroke-linecap="butt" stroke-linejoin="miter" stroke="rgb(7.841492%, 17.64679%, 41.175842%)" stroke-opacity="0.6" stroke-miterlimit="10" d="M 0.00034375 -0.000375 L 84.332375 36.144156 C 89.656594 36.144156 93.969094 19.960563 93.969094 -0.000375 C 93.969094 -19.961312 89.656594 -36.141 84.332375 -36.141 Z M 0.00034375 -0.000375 " transform="matrix(1, 0, 0, -1, 13.777, 47.484)"/>
</g>
<g clip-path="url(#clip-1)">
<path fill="none" stroke-width="0.79701" stroke-linecap="butt" stroke-linejoin="miter" stroke="rgb(7.841492%, 17.64679%, 41.175842%)" stroke-opacity="1" stroke-dasharray="2.98883 2.98883" stroke-miterlimit="10" d="M 93.969094 -0.000375 C 93.969094 19.960563 89.656594 36.144156 84.332375 36.144156 C 79.008156 36.144156 74.695656 19.960563 74.695656 -0.000375 C 74.695656 -19.961312 79.008156 -36.141 84.332375 -36.141 C 89.656594 -36.141 93.969094 -19.961312 93.969094 -0.000375 Z M 93.969094 -0.000375 " transform="matrix(1, 0, 0, -1, 13.777, 47.484)"/>
</g>
<path fill="none" stroke-width="1.19553" stroke-linecap="butt" stroke-linejoin="miter" stroke="rgb(100%, 0%, 0%)" stroke-opacity="1" stroke-miterlimit="10" d="M 0.00034375 -0.000375 L 85.812844 21.45275 " transform="matrix(1, 0, 0, -1, 13.777, 47.484)"/>
<path fill="none" stroke-width="0.9564" stroke-linecap="round" stroke-linejoin="round" stroke="rgb(100%, 0%, 0%)" stroke-opacity="1" stroke-miterlimit="10" d="M -1.912387 2.551067 C -1.753199 1.593236 -0.00139728 0.16079 0.477998 0.00068888 C -0.000442145 -0.157541 -1.753121 -1.595756 -1.911316 -2.550752 " transform="matrix(0.97014, -0.24251, -0.24251, -0.97014, 99.59113, 26.03065)"/>
<g fill="rgb(0%, 0%, 0%)" fill-opacity="1">
<use xlink:href="#glyph-1-0" x="107.124" y="28.488"/>
</g>
<g fill="rgb(0%, 0%, 0%)" fill-opacity="1">
<use xlink:href="#glyph-0-2" x="111.29665" y="25.93205"/>
</g>
<path fill="none" stroke-width="0.99628" stroke-linecap="butt" stroke-linejoin="miter" stroke="rgb(0%, 0%, 100%)" stroke-opacity="1" stroke-miterlimit="10" d="M 0.00034375 -0.000375 L 85.9105 4.773063 " transform="matrix(1, 0, 0, -1, 13.777, 47.484)"/>
<path fill="none" stroke-width="0.79701" stroke-linecap="round" stroke-linejoin="round" stroke="rgb(0%, 0%, 100%)" stroke-opacity="1" stroke-miterlimit="10" d="M -1.734791 2.311107 C -1.58723 1.446095 -0.000654394 0.145108 0.433368 -0.000289382 C -0.00108825 -0.144385 -1.587451 -1.44515 -1.733282 -2.309512 " transform="matrix(0.99843, -0.05547, -0.05547, -0.99843, 99.68839, 42.71125)"/>
<g fill="rgb(0%, 0%, 0%)" fill-opacity="1">
<use xlink:href="#glyph-1-0" x="108.329" y="45.354"/>
</g>
<g fill="rgb(0%, 0%, 0%)" fill-opacity="1">
<use xlink:href="#glyph-2-0" x="112.50165" y="42.79805"/>
</g>
<path fill="none" stroke-width="1.19553" stroke-linecap="butt" stroke-linejoin="miter" stroke="rgb(100%, 50%, 0%)" stroke-opacity="1" stroke-miterlimit="10" d="M 0.00034375 -0.000375 L 88.203469 -11.918344 " transform="matrix(1, 0, 0, -1, 13.777, 47.484)"/>
<path fill="none" stroke-width="0.9564" stroke-linecap="round" stroke-linejoin="round" stroke="rgb(100%, 50%, 0%)" stroke-opacity="1" stroke-miterlimit="10" d="M -1.913358 2.549168 C -1.752661 1.593284 -0.00172869 0.158499 0.477152 -0.0014828 C 0.00192945 -0.160302 -1.751444 -1.595568 -1.913943 -2.551762 " transform="matrix(0.99095, 0.1339, 0.1339, -0.99095, 101.98049, 59.40339)"/>
<g fill="rgb(0%, 0%, 0%)" fill-opacity="1">
<use xlink:href="#glyph-1-1" x="108.329" y="60.231"/>
</g>
<g clip-path="url(#clip-2)">
<path fill="none" stroke-width="0.99628" stroke-linecap="butt" stroke-linejoin="miter" stroke="rgb(0%, 50%, 0%)" stroke-opacity="1" stroke-dasharray="2.98883 2.98883" stroke-miterlimit="10" d="M 0.00034375 -0.000375 L 83.539406 -26.254281 " transform="matrix(1, 0, 0, -1, 13.777, 47.484)"/>
</g>
<path fill="none" stroke-width="0.79701" stroke-linecap="round" stroke-linejoin="round" stroke="rgb(0%, 50%, 0%)" stroke-opacity="1" stroke-miterlimit="10" d="M -1.732761 2.31046 C -1.588281 1.446817 0.000351836 0.144361 0.434034 0.00220761 C 0.00151953 -0.146004 -1.588742 -1.444269 -1.733456 -2.312806 " transform="matrix(0.95395, 0.2998, 0.2998, -0.95395, 97.31576, 73.73917)"/>
<g fill="rgb(0%, 0%, 0%)" fill-opacity="1">
<use xlink:href="#glyph-1-2" x="105.919" y="74.688"/>
</g>
<path fill="none" stroke-width="0.79701" stroke-linecap="butt" stroke-linejoin="miter" stroke="rgb(0%, 39.216614%, 62.745667%)" stroke-opacity="1" stroke-miterlimit="10" d="M 120.473 4.663688 L 120.473 31.480094 " transform="matrix(1, 0, 0, -1, 13.777, 47.484)"/>
<path fill-rule="nonzero" fill="rgb(0%, 39.216614%, 62.745667%)" fill-opacity="1" d="M 134.25 47.484375 C 134.511719 46.101562 135.289062 43.859375 136.195312 42.304688 L 132.308594 42.304688 C 133.214844 43.859375 133.992188 46.101562 134.25 47.484375 "/>
<path fill-rule="nonzero" fill="rgb(0%, 39.216614%, 62.745667%)" fill-opacity="1" d="M 134.25 11.339844 C 133.992188 12.722656 133.214844 14.96875 132.308594 16.523438 L 136.195312 16.523438 C 135.289062 14.96875 134.511719 12.722656 134.25 11.339844 "/>
<g fill="rgb(0%, 39.216614%, 62.745667%)" fill-opacity="1">
<use xlink:href="#glyph-3-0" x="127.688" y="34.426"/>
</g>
<g fill="rgb(0%, 39.216614%, 62.745667%)" fill-opacity="1">
<use xlink:href="#glyph-4-0" x="103.51" y="8.625"/>
</g>
<g fill="rgb(0%, 39.216614%, 62.745667%)" fill-opacity="1">
<use xlink:href="#glyph-1-3" x="109.07325" y="8.625"/>
</g>
<g fill="rgb(0%, 39.216614%, 62.745667%)" fill-opacity="1">
<use xlink:href="#glyph-4-1" x="116.1325" y="8.625"/>
</g>
<g fill="rgb(0%, 39.216614%, 62.745667%)" fill-opacity="1">
<use xlink:href="#glyph-5-0" x="123.2589" y="3.3975"/>
</g>
<path fill="none" stroke-width="0.339" stroke-linecap="butt" stroke-linejoin="miter" stroke="rgb(0%, 39.216614%, 62.745667%)" stroke-opacity="1" stroke-miterlimit="10" d="M -0.00139706 -0.0000661765 L 39.755037 -0.0000661765 " transform="matrix(0.85, 0, 0, -0.85, 129.91525, 3.25385)"/>
<g fill="rgb(0%, 39.216614%, 62.745667%)" fill-opacity="1">
<use xlink:href="#glyph-4-0" x="129.91525" y="8.625"/>
</g>
<g fill="rgb(0%, 39.216614%, 62.745667%)" fill-opacity="1">
<use xlink:href="#glyph-1-4" x="135.4785" y="8.625"/>
</g>
<g fill="rgb(0%, 39.216614%, 62.745667%)" fill-opacity="1">
<use xlink:href="#glyph-0-3" x="139.18025" y="6.9318"/>
</g>
<g fill="rgb(0%, 39.216614%, 62.745667%)" fill-opacity="1">
<use xlink:href="#glyph-4-2" x="144.0278" y="8.625"/>
</g>
<g fill="rgb(0%, 39.216614%, 62.745667%)" fill-opacity="1">
<use xlink:href="#glyph-4-0" x="150.767629" y="8.625"/>
</g>
<g fill="rgb(0%, 39.216614%, 62.745667%)" fill-opacity="1">
<use xlink:href="#glyph-1-5" x="156.33155" y="8.625"/>
</g>
<g fill="rgb(0%, 39.216614%, 62.745667%)" fill-opacity="1">
<use xlink:href="#glyph-0-3" x="160.40305" y="6.9318"/>
</g>
</svg>
